# xmcd
#
# Track frame offsets:
#	150
#	20451
#	45947
#	63438
#	89510
#	107528
#	124065
#	147978
#	169427
#	201640
#	229666
#
# Disc length: 3359 seconds
#
# Revision: 1
# Processed by: cddbd v1.5PL3 Copyright (c) Steve Scherf et al.
# Submitted via: CDex 1.50Beta5
#
DISCID=990d1d0b
DTITLE=Kotoko - 空を飛べたら・・・
DYEAR=1900
DGENRE=
TTITLE0=ミルク
TTITLE1=疾風雲
TTITLE2=PhuLa PhuLa
TTITLE3=カナリヤ
TTITLE4=鼓動
TTITLE5=ゆうえんち
TTITLE6=もしも・・・
TTITLE7=アスピリン
TTITLE8=サヨナラ・ジレンマ
TTITLE9=羽
TTITLE10=春色
EXTD=
EXTT0=
EXTT1=
EXTT2=
EXTT3=
EXTT4=
EXTT5=
EXTT6=
EXTT7=
EXTT8=
EXTT9=
EXTT10=
PLAYORDER=
